<?xml version="1.0" standalone="no"?>
<!DOCTYPE svg PUBLIC "-//W3C//DTD SVG 1.1//EN" "http://www.w3.org/Graphics/SVG/1.1/DTD/svg11.dtd" >
<svg xmlns="http://www.w3.org/2000/svg">
<metadata>
This is a custom SVG webfont generated by Font Squirrel.
Copyright   :  2005 Edgar Tadeo
</metadata>
<defs>
<font id="webfontwQPAwbjK" horiz-adv-x="1017" >
<font-face units-per-em="2048" ascent="1638" descent="-410" />
<missing-glyph horiz-adv-x="929" />
<glyph unicode=" "  horiz-adv-x="929" />
<glyph unicode="&#x09;" horiz-adv-x="929" />
<glyph unicode="&#xa0;" horiz-adv-x="929" />
<glyph unicode="!" horiz-adv-x="782" d="M233 90q0 72 17.5 100.5t73.5 79.5q66 57 98 58q68 0 67 -131q0 -78 -34 -119q-12 -2 -33 -8q-41 -16 -74 -60.5t-57 -44.5q-58 0 -58 125zM324 655q0 6 4 29t4 33q6 72 98 643q6 27 47 139q53 133 80 133t43 -51q14 -43 14 -76q0 -41 -32 -127q-39 -104 -45 -141 q-31 -139 -82 -457q-2 -61 -17 -184q-4 -14 -18 -37q-20 -31 -39 -31q-25 0 -43 52q-14 40 -14 75z" />
<glyph unicode="&#x22;" horiz-adv-x="1232" d="M258 1208q0 78 27 131l86 115q10 20 32 57l29 62q29 49 53 49q33 0 56 -66q18 -55 18 -98q0 -74 -47 -172q-23 -43 -98 -170l-26 -55q-13 -29 -44 -29q-41 0 -65 70q-21 53 -21 106zM758 1214q0 45 14 111q12 18 29 57q10 35 43 111q10 16 46 53t54 37q35 0 60 -63 q18 -51 18 -97q0 -78 -41 -145q-18 -14 -41 -45l-43 -111q-35 -84 -61 -84q-43 0 -66 86q-12 51 -12 90z" />
<glyph unicode="#" horiz-adv-x="1521" d="M299 678q0 143 180 231v271q0 20 19 59q20 47 45 47q35 0 53 -72q10 -39 8 -123.5t10 -125.5q45 14 250 92q-27 109 15 184q16 29 39 29q31 0 63 -80l31 -88q98 33 278 86q45 -43 45 -135q0 -61 -18.5 -101.5t-48.5 -50.5q-80 -25 -244 -82q6 -37 16 -117q215 78 236 78 q37 0 55 -67q10 -41 10 -76q0 -115 -51 -139q-16 -2 -49 -9q-59 -16 -182 -63q6 -47 -2 -115q-12 -104 -62 -104q-63 0 -73 174l-162 -49q-80 -25 -105 -47q0 -199 -63 -199q-31 0 -51 64q-16 49 -17 83q-92 -37 -121 -36q-82 0 -81 139q0 119 55 135q14 0 45 4q12 4 90 41 q-8 41 -6 107l-8 10q-23 -10 -80 -53q-49 -35 -56 -35q-31 0 -49 61q-14 45 -14 72zM633 692q0 -20 3 -64t3 -61l270 92l-8 70q-4 37 8 49h-28z" />
<glyph unicode="$" horiz-adv-x="1169" d="M233 518q0 59 21 105q27 59 78 59q41 0 57 -72q8 -37 14 -75q10 -12 84 -68q63 -45 162 -45q70 0 139 27q88 35 89 92q0 53 -95 94q-61 25 -100 29q-25 2 -70 4q-92 4 -153 22q-176 45 -176 322q0 117 32 188q45 102 170 160q23 10 60 8v113q2 23 20 73q27 70 58 70 q35 0 53 -74q12 -53 10 -75q-16 -129 -16 -119q4 -2 14 -8q209 -39 209 -263q0 -137 -62 -182q25 -16 66 -50t80 -144q35 -100 35 -162q0 -37 -51 -221q-20 -74 -109 -127q-74 -45 -150 -56l-24 -82q-18 -53 -53 -53q-29 0 -50 68l-16 74l-51 22q-70 33 -143 90 q-88 72 -109 133q-23 70 -23 123zM408 1012q29 -43 124 -56q76 -8 150 -14q39 -8 106 -24q-20 23 -26 61l-8 59q-72 53 -207 54q-67 0 -139 -80z" />
<glyph unicode="%" horiz-adv-x="1560" d="M266 1212q0 137 82 293q8 16 62.5 46t72.5 30q6 0 10.5 -3t10.5 -3t24.5 11t26.5 11q4 0 51 -14q145 -45 146 -272q0 -274 -252 -336q-80 -18 -78 -19q-39 0 -81 40t-52 75q-23 78 -23 141zM406 139q0 68 30 137l64 140l239 469l150 332l78 182q35 61 92 180q16 45 49 45 q27 0 45 -55q16 -43 16 -78q0 -63 -47 -158l-80 -155l-92 -215l-72 -165q-48 -110 -198 -397q-125 -240 -164 -362q-14 -39 -49 -39t-51 66q-10 40 -10 73zM406 1235q6 0 12 -6l104 28q61 18 80 50q-35 18 -43 18q-39 0 -90 -25q-61 -26 -63 -65zM838 352q0 145 71 240 q37 51 90 70q8 0 27 6q2 0 23.5 24.5t33.5 24.5q10 0 67.5 -20.5t86.5 -37.5q45 -23 68.5 -98.5t23.5 -132.5q0 -47 -18 -119q-23 -78 -43 -100q-43 -41 -123 -86q-90 -47 -139 -47q-86 0 -132 100q-36 78 -36 176zM977 354q4 0 14 -3t17 -3q23 0 149 66q-72 31 -76 30 q-16 0 -104 -90z" />
<glyph unicode="&#x26;" horiz-adv-x="1921" d="M250 569q0 158 90 299q12 29 47 82q76 84 172 121q-63 -6 -63 121q0 113 110 209q94 84 154 110q25 12 196 50q121 27 254 26q162 0 256 -39q139 -55 228 -213q8 -14 16 -76.5t8 -119.5q0 -172 -67 -361q-86 -238 -221 -237q-72 0 -109 114q-16 -23 -34.5 -43t-47.5 -20 q-66 0 -78 115q0 47 -4 147q-41 -57 -106 -170l-31 -63q-29 -51 -49 -52q-33 0 -47 70l-9 80q-143 -205 -188 -205q-41 0 -59 68l-17 82l-143 -129q41 -8 63 -64q39 -86 47 -98q2 -4 62 -47q78 -57 186 -58q115 0 228 25q2 0 86 33q39 14 82 32.5t69 49.5q8 16 19.5 33.5 t25.5 17.5q29 0 43 -45q12 -35 13 -70q0 -84 -48 -139q-70 -80 -290 -144q-82 -25 -228 -24q-184 0 -309 141l-37 78q-51 109 -51 162q0 -2 23 100q-80 -59 -95 -67q-39 -23 -78 -23q-69 0 -69 141zM444 725q18 2 35 8q37 12 56 35q31 37 38 80q-57 8 -89 -41t-40 -82z M559 1073q33 8 51 8q113 0 144 -106q12 -47 12 -184q35 41 74 92l59 88q57 80 90 80q39 0 58 -82q74 141 135 141q47 0 71 -98q20 -78 17 -144q49 119 127 195q88 88 178 88q25 0 33 -4v43q-76 98 -181 135q-82 31 -219 31q-84 0 -106 -2q-168 -14 -301 -60 q-61 -23 -123 -73q-68 -55 -92 -113q-9 -17 -27 -35zM1466 778q20 8 60 43q20 25 22 62q-33 16 -59.5 -27t-22.5 -78z" />
<glyph unicode="'" horiz-adv-x="835" d="M340 1264q0 68 25 112q27 33 73 99q8 18 27 51l27 51q23 43 45 43q29 0 49 -57q14 -45 14 -84q0 -86 -127 -295l-21 -49q-11 -25 -36 -25q-37 0 -60 61q-16 46 -16 93z" />
<glyph unicode="(" horiz-adv-x="788" d="M242 864q0 236 75 486q12 41 60 116q115 166 151 166q31 0 50 -51q14 -41 14 -82q0 -80 -29 -115l-84 -98q-49 -61 -61 -102q-49 -164 -49 -322q0 -123 28 -348q6 -53 45 -154q4 -25 11 -51q10 -35 26 -47q16 -4 47 -22q12 -10 23.5 -53.5t11.5 -69.5q0 -33 -16 -80 q-20 -61 -53 -62q-27 0 -58 29q-55 49 -98 213q-20 51 -55 201q-39 253 -39 446z" />
<glyph unicode=")" horiz-adv-x="882" d="M250 1505q0 31 12 74q18 53 43 53q16 0 43 -28q14 -18 28 -34l34 -40q186 -313 227 -617q18 -129 18 -161q0 -137 -37 -301q-37 -174 -90 -269l-47 -102q-49 -90 -94 -90q-29 0 -47 49q-14 41 -14 78q0 23 11 63.5t21 50.5q18 16 52 56q51 92 86.5 221t35.5 229 q0 141 -69 316l-45 118q-35 82 -68 136q-23 25 -63 75q-16 23 -25 45q-12 31 -12 78z" />
<glyph unicode="*" horiz-adv-x="1071" d="M311 793q0 43 6 61q16 51 72 158q49 96 49 100l-41 47q-47 51 -69 96q-16 35 -17 93q0 33 13 73q18 53 47 54q14 0 45 -37l55 -66q0 47 6 141q14 115 62 115q39 0 55 -117q2 -63 6 -129q29 37 55 76q39 47 66 47q55 0 55 -131q0 -59 -24 -98l-88 -115q90 -84 108 -110 q31 -41 31 -113q0 -39 -12 -78q-16 -51 -48 -51q-14 0 -63 49l-57 60q-2 -25 2 -77.5t4 -54.5q0 -41 -11 -86q-16 -74 -49 -73q-23 0 -43 39q-12 27 -14 45q-2 51 -14 159q-45 -96 -103 -196q-6 -12 -28 -12q-31 0 -45 61q-11 39 -11 70z" />
<glyph unicode="+" horiz-adv-x="1298" d="M285 809q0 127 63 166q41 25 201 41q0 25 -6 82t-6 61q0 49 16 101q23 68 61 67q49 0 78 -137l21 -154h268q35 0 59 -82q16 -57 17 -86q0 -27 -17 -88q-23 -80 -53 -80h-254v-256q0 -41 -22 -94q-29 -61 -64 -61q-31 0 -49 35q-25 45 -27 75q-8 88 -10 86q8 20 14 60v135 q-59 4 -135 -16q-4 0 -31.5 -12.5t-37.5 -12.5q-45 0 -68 66q-18 49 -18 104z" />
<glyph unicode="," horiz-adv-x="808" d="M389 -121q0 51 55 166l37 98q8 20 27 21q20 0 35 -39q10 -31 10 -57q0 -45 -45 -160q-47 -123 -76 -123q-37 0 -43 94z" />
<glyph unicode="-" d="M281 791q0 27 13 70.5t23 45.5q137 10 254 11q-12 0 113 -9q25 0 66 -12q41 -27 41 -123q0 -125 -68 -125q-6 0 -75.5 7.5t-76.5 7.5q-6 0 -79.5 -5.5t-77.5 -5.5q-78 0 -105.5 31t-27.5 107z" />
<glyph unicode="." horiz-adv-x="778" d="M307 102q0 53 15.5 80t60.5 72q53 51 78 51q23 0 39 -41q10 -33 10 -61q0 -57 -23 -88q-6 -8 -47 -39q-18 -12 -47 -49q-20 -29 -37 -29q-25 0 -39 41q-10 30 -10 63z" />
<glyph unicode="/" horiz-adv-x="870" d="M160 143q0 68 57 207l82 189q16 66 53 194l180 502q33 86 89 203q92 195 137 194q29 0 49 -53q16 -43 16 -82q0 -63 -92 -211q-14 -25 -78 -178q-35 -84 -82 -213l-100 -277q-23 -92 -74 -266q-29 -49 -78 -157q-8 -29 -32 -95l-17 -53q-20 -51 -47 -51q-29 0 -49 61 q-14 49 -14 86z" />
<glyph unicode="0" horiz-adv-x="1091" d="M258 424q0 -12 8 135q6 113 49 275q14 57 84 172q88 141 148 141q4 0 23.5 -6t27.5 -8q145 -16 231 -226q66 -158 66 -307q0 -59 -23 -201q-8 -55 -24 -92q-59 -129 -98 -174q-117 -139 -222 -139q-150 0 -221 176q-49 117 -49 254zM381 438q0 -184 145 -184q74 0 148 88 q59 72 86 154q12 39 12 108q0 25 -37 150q-10 29 -62 76t-83 47q-4 0 -19.5 -26t-38.5 -26q-2 0 -32 17q-119 -156 -119 -404z" />
<glyph unicode="1" horiz-adv-x="831" d="M238 889q0 74 22 98q31 35 88.5 84t67.5 49q39 0 49 -53q29 -137 29 -209v-455q0 -6 -8.5 -34.5t-8.5 -34.5v-72q8 -2 25.5 3t19.5 5q68 0 68 -131q0 -72 -29 -112l-46 -21l-64 -29q-33 -14 -76 -14q-86 0 -86 131q0 123 71 129q0 78 7.5 238t7.5 153q0 145 -8 187 q-43 -37 -66 -37q-31 0 -49 49q-14 37 -14 76z" />
<glyph unicode="2" horiz-adv-x="1032" d="M213 135q0 129 137 330l258 346q0 10 -4 14q-125 -20 -198 -120l-26 -48q-13 -25 -38 -24q-29 0 -49 53q-14 43 -14 80q0 133 114.5 235.5t239.5 102.5q76 0 117 -94q29 -68 28 -133q0 -217 -286 -547q121 2 239 2q129 -10 129 -152q0 -31 -14 -78q-20 -61 -51 -61 q-6 0 -16.5 4t-14.5 4q-25 2 -123 2q-131 0 -169 -7t-111.5 -32.5t-79.5 -25.5q-33 0 -54 59q-14 45 -14 90z" />
<glyph unicode="3" horiz-adv-x="991" d="M205 182q0 35 12 72q16 47 41 47q6 0 31 -18q33 -27 41 -31q45 -29 127 -29q76 0 147.5 48t110.5 137q16 41 16 55q0 16 -41 31q-29 8 -45 8q-51 0 -119.5 -35t-72.5 -35q-27 0 -43 49q-14 39 -15 72q0 59 45 133q63 109 78 141v7q-158 -66 -207 -66q-31 0 -45 57 q-10 35 -10 62q0 23 12 61q12 47 27 51l106 31l103 37q70 23 119 23q76 0 75 -132q0 -47 -19 -103l-40 -112q201 -23 201 -274q0 -168 -90 -311q-111 -174 -293 -174q-96 0 -166 45q-86 53 -86 153z" />
<glyph unicode="4" horiz-adv-x="1058" d="M238 580q0 80 18 108q39 68 285 414q20 29 41 28q35 0 49 -65q10 -37 10 -68q0 -82 -51 -153q-111 -152 -129 -187h327v312q0 23 20.5 60.5t43.5 37.5q29 0 49 -45q14 -35 14 -57v-861q0 -18 -16 -59q-20 -49 -45 -49q-29 0 -49 70q-16 53 -17 81v242h-352 q-47 -2 -133 33q-65 27 -65 158z" />
<glyph unicode="5" horiz-adv-x="899" d="M258 524q0 8 7 92t7 91v178q0 31 17 78q18 63 45 63q6 0 20.5 -10t20.5 -10t29.5 8t33.5 10q41 4 135 18q86 12 91 13q31 0 49 -49q14 -37 14 -78q0 -31 -12 -70q-16 -47 -35 -55q-43 -20 -146.5 -29.5t-136.5 -28.5q-4 -18 -8 -49v-28q109 41 148 41q109 0 176 -160 q51 -119 51 -215q0 -55 -23 -113q-33 -78 -57 -123q-43 -76 -96 -143q-16 -18 -119 -121q-117 -115 -129 -115q-61 0 -61 140q0 76 22 114q16 8 45 27q35 29 180 182q12 12 56 78q49 74 49 90q0 33 -30 66t-64 33q-82 0 -143.5 -58.5t-69.5 -58.5q-66 -1 -66 192z" />
<glyph unicode="6" horiz-adv-x="1118" d="M213 446q0 287 172 531q96 137 197 137q39 0 51 -6q43 -27 43 -123q0 -33 -12 -74q-14 -53 -40 -52t-71 -5q-68 -37 -133.5 -140.5t-77.5 -176.5q-6 -33 -6 -93q0 -150 41 -184q2 20 2 64q-8 150 141 290q137 133 262 134q61 0 121 -70q53 -66 66 -129q6 -41 6 -94 q0 -127 -37 -203q-49 -100 -193.5 -193.5t-242.5 -93.5q-39 0 -92 17q-59 16 -80 36q-117 119 -117 428zM494 225h41q4 0 67 23q45 14 143 82q109 78 109 108q0 18 -29.5 34.5t-44.5 16.5q-74 0 -176 -77q-111 -84 -110 -170v-17z" />
<glyph unicode="7" horiz-adv-x="894" d="M160 901q0 35 14 78t35 53q113 57 229 74q51 6 180 6q123 0 143.5 -7t35 -55.5t14.5 -80.5q0 -61 -23 -105q-16 -33 -69 -112q-43 -68 -43 -74t2 -8q6 4 14 4q37 0 56 -64q12 -39 12 -71q0 -29 -12 -70q-14 -51 -33 -53q-10 -4 -97 -4q-61 -2 -87.5 -24.5t-104.5 -237.5 q-4 -25 -18 -74q-6 -20 -31 -60q-31 -51 -47 -51q-31 0 -51 64q-14 47 -15 75q0 49 28 116l56 132q-8 4 -24 0q-18 -6 -21 -6q-31 0 -49 53q-16 43 -16 80q0 74 32 103q20 16 84 30q74 14 113 36t65 85l46 115h-97q-70 -2 -160 -41t-98 -39q-37 0 -53 63q-10 39 -10 70z" />
<glyph unicode="8" horiz-adv-x="1038" d="M213 813q0 115 44 183.5t153 144.5q53 39 129 39q39 0 82 -19.5t47 -46.5q236 266 297 266q37 0 55 -57q10 -37 10 -72q0 -31 -13 -73.5t-34 -51.5q-115 -49 -252 -237q-182 -246 -182 -264q0 12 32.5 -63t32.5 -146q0 -111 -69 -244q-90 -172 -223 -172q-104 0 -105 190 q0 178 96 381q-100 74 -100 242zM352 262q41 8 86 59.5t45 79.5q0 16 -43 60q-74 -119 -88 -199zM354 815l72 -57l113 164h-27q-37 2 -86 -41z" />
<glyph unicode="9" horiz-adv-x="911" d="M160 680q0 82 50 183.5t122 170.5q8 8 54 28.5t118 20.5q53 0 61 -2q25 -6 66 -37.5t59 -62.5q4 -4 15 -35q29 -88 28 -106v-535q0 -43 -31 -125q-27 -72 -43 -88q-88 -88 -149 -104q-25 -6 -88 -6q-96 0 -184 36q-20 8 -33 56q-10 39 -10 67q0 37 16 82q20 55 51 56 q6 0 22.5 -11.5t24.5 -13.5q76 -16 113 -16q139 0 190 104l-4 162q-39 -35 -112.5 -59.5t-137.5 -24.5q-198 0 -198 260zM301 686q49 -10 57 -10q-6 0 86 10q25 4 82 31q72 35 72 61q0 49 -96 49q-78 0 -123 -31.5t-78 -109.5z" />
<glyph unicode=":" horiz-adv-x="706" d="M272 983q0 35 15 74q18 51 47 51q6 0 32.5 -5t34.5 -5q6 0 24.5 5t27.5 5q27 0 43 -53q12 -41 12 -78q0 -139 -100 -139q-136 0 -136 145zM293 324q0 129 74 129q127 0 127 -146q0 -131 -86 -131q-115 1 -115 148z" />
<glyph unicode=";" horiz-adv-x="716" d="M266 -10q0 117 103 375q8 14 18 45q29 74 57 73q49 0 50 -116q0 -43 -19 -97l-47 -116q-23 -57 -51 -170l-12 -64q-14 -57 -43 -57q-33 0 -48 61q-8 35 -8 66zM299 864q0 25 11.5 65t25.5 46q18 0 55 8q45 12 41 12q57 0 57 -114q0 -133 -118 -133q-72 -1 -72 116z" />
<glyph unicode="&#x3c;" horiz-adv-x="1099" d="M233 733q0 96 99 174q63 51 248 285l204 287q111 154 138 153q29 0 49 -53q16 -43 16 -82q0 -78 -47 -139l-297 -408q-27 -33 -123 -141q-80 -90 -80 -98q0 -4 150 -150l334 -334q4 -10 12 -20q12 -49 12 -88q0 -139 -65 -139q-16 0 -109 94l-489 491q-37 39 -49 117 q-3 6 -3 51z" />
<glyph unicode="=" horiz-adv-x="1026" d="M197 481q0 84 30 107q51 35 203 65q51 10 133 23q156 23 164 22q39 0 49 -2q49 -8 49 -118q0 -33 -10 -70q-14 -49 -39 -49l-104 -6q-47 -8 -137 -21q-111 -18 -197 -43l-47 -18q-29 -14 -37 -15q-57 0 -57 125zM201 864q0 88 45 115q53 35 135 43q160 16 168 18 q27 4 100 25q66 16 70 16q29 0 45 -51q14 -41 14 -74q0 -29 -10 -67q-12 -47 -33 -53q-203 -43 -356 -54q-20 -2 -68.5 -19.5t-52.5 -17.5q-27 0 -43 48q-14 34 -14 71z" />
<glyph unicode="&#x3e;" horiz-adv-x="976" d="M233 1497q0 135 62 135q70 0 160 -155q25 -45 133 -193q27 -37 188 -235q39 -47 80 -117t41 -154q0 -59 -47 -155l-293 -594q-16 -33 -43 -33q-33 0 -51 65q-10 41 -10 70q0 53 67 188q221 442 221 449q0 2 -157 203q-6 6 -150 203l-76 113q-37 56 -81 80t-44 130z" />
<glyph unicode="?" horiz-adv-x="1245" d="M213 1335q0 100 63 213q102 186 414 187q449 0 449 -400q0 -80 -33 -186q-47 -143 -234 -272l-303 -191q4 -35 4 -65q0 -152 -96 -152q-57 0 -82 84q-14 51 -14 113q0 115 66.5 197.5t230.5 176.5q84 47 172 111q125 92 135 133q2 6 13.5 23.5t11.5 25.5q0 14 -41 51 t-54 41q-109 33 -225 33q-303 0 -342 -137q4 -37 -2 -113q-10 -39 -37 -71h-37q-59 57 -59 198zM365 121q0 90 32 123q14 12 113 73l63 50q66 47 84 47q31 0 52 -54q16 -43 16 -81q0 -80 -31 -111q-10 -14 -186 -137q-12 -14 -37 -39q-8 -8 -35 -8q-71 0 -71 137z" />
<glyph unicode="@" horiz-adv-x="1628" d="M197 856q0 162 12 234q25 129 108 274q10 18 109 96q20 12 57 41q96 86 240 127q82 23 141 23q63 0 213 -23q33 -6 68 -31q113 -86 217 -270q8 -33 29 -104q31 -94 30 -205q0 -504 -295 -504q-47 0 -57 2q-27 6 -49 35q-68 -51 -90 -64q-41 -20 -103 -20q-49 0 -53 2 q-68 25 -123 68q-39 29 -52 98.5t-13 136.5q0 297 225 350q61 14 78 15q55 0 117 -39q18 -10 38 -76q12 -43 21 -168q0 -20 22 -76q82 -2 93 2q45 14 90 66q14 16 18 61q0 18 7.5 60.5t7.5 48.5q0 51 -29 123q-25 31 -64 88q-18 33 -61 79t-68 52q-102 29 -217 28 q-6 0 -34.5 -7t-43.5 -7q-152 -8 -403 -233q-2 -10 -12 -31q-39 -78 -49 -135q-6 -35 -7 -113q0 -150 62 -258q8 -31 33 -84q18 -18 49 -57q23 -35 73 -96q61 -57 238 -115q53 -16 123 -17q-10 0 74 15q33 -2 94 2q43 12 86 37l78 47q66 41 94 76q14 25 51 65q6 2 19 2 q59 0 59 -129q0 -127 -133 -233q-104 -86 -248 -129q-35 2 -98 -2q-82 -14 -80 -15q-72 0 -182 39l-99 37q-63 27 -100 56.5t-66 66.5l-45 61q-23 23 -59 74q-86 166 -117 301q-24 102 -24 252zM705 776q63 -35 79 -41q10 -2 45 -2h45q57 14 68 43q2 6 2 39q0 31 -6 41 q-12 16 -51 16q-51 0 -107 -24q-65 -29 -75 -72z" />
<glyph unicode="A" horiz-adv-x="1095" d="M197 84q0 506 161 954q41 117 144 258q57 80 170 174q51 45 132 101.5t91 56.5q33 0 53 -80q16 -57 17 -92v-1370q0 -27 -19 -63q-23 -43 -45 -43q-27 0 -45 43q-16 35 -16 59v240q0 16 -15 380q-145 -12 -290 -92q-154 -84 -193 -186q-27 -66 -29 -209l1 28q1 0 1 -167 q0 -74 21 -191q6 -23 22 -51q45 -66 45 -141q0 -33 -14 -76q-18 -59 -45 -59q-55 0 -111 182q-36 127 -36 344zM434 809q88 68 207 111q109 39 188 38q0 102 5 355q-131 -80 -228 -191q-102 -117 -164 -278q-8 -12 -8 -19v-16z" />
<glyph unicode="B" horiz-adv-x="1198" d="M164 1329q0 6 6 40t8 52q2 59 6 119q14 115 56 115q29 0 44 -43t19 -43t37 19.5t45 25.5q66 31 158 31q293 0 293 -275q0 -141 -76 -237l67 -19q166 -47 254 -242q72 -154 72 -317q0 -127 -80 -258q-88 -147 -228 -206.5t-151 -63.5q-63 -20 -141 -21q-152 0 -229 47 q-12 -18 -23 -37q-20 -33 -35 -32q-35 0 -53 55q-27 80 -29 260l-4 928q0 18 -8 58t-8 44zM303 1278q0 -197 8 -203q88 18 204 104.5t165 168.5q-82 23 -139 22q-129 0 -238 -92zM315 334q113 -55 238 -55q96 0 201 45q84 37 139 69q47 29 89 90.5t42 94.5q0 12 -31 92 q-76 195 -356 194q-94 0 -164 -18q-47 -12 -158 -58v-454z" />
<glyph unicode="C" horiz-adv-x="1224" d="M158 825q0 242 121 496q160 334 432 334q121 0 207 -56q109 -66 108 -190q0 -33 -12 -74q-20 -57 -51 -57q-6 0 -43 31q-43 35 -58 43q-49 29 -153 28q-201 0 -324 -219q-98 -174 -98 -352q0 -348 196 -512q18 -14 64 -31q59 -18 86 -18q6 0 26.5 4t32.5 4q119 10 219 63 q133 70 179 191q8 25 14 49q18 43 43 43q63 0 63 -149q0 -80 -49 -177q-66 -135 -209 -217q-129 -72 -260 -75q-6 0 -27.5 -5.5t-29.5 -5.5q-35 0 -94 21q-213 72 -314 366q-69 209 -69 465z" />
<glyph unicode="D" horiz-adv-x="1298" d="M92 1358q0 86 55 139q41 41 158 98q10 0 31 2q162 55 340 56q211 0 338 -123q47 -35 131 -115q53 -68 76 -129q63 -188 63 -412q0 -403 -260 -620q-66 -57 -201 -162q-82 -53 -227 -88q-27 -6 -166 -6q-4 0 -19.5 -8t-21.5 -8q-70 0 -70 272v195q0 6 -5 36.5t-5 36.5v185 q0 33 -18 303q-20 293 -29 293q-8 0 -47 -36t-61 -36q-29 0 -48 57q-14 43 -14 70zM387 1350l51 -844q4 -101 4 -162t-4 -82h131q6 0 30 8.5t28 10.5q117 25 255 130t224 238q59 92 59 232q0 51 -18 147q-10 55 -31 102q-14 35 -31 54q-123 131 -221 174q-74 33 -194 33 q-164 0 -283 -41z" />
<glyph unicode="E" horiz-adv-x="1525" d="M170 651q0 260 88 482q92 238 266 374q168 131 295 131q37 0 131 -20q129 -27 185 -64q76 -53 75 -157q0 -33 -12 -74q-18 -55 -51 -55q-6 0 -31 16q-31 20 -41 25q-145 59 -252 59q-131 0 -271 -128t-218 -306q-4 -4 8 -4q-10 0 125 55q403 166 782 166q102 0 125 -6 q16 -6 31 -58q12 -43 12 -69q0 -33 -14 -76q-18 -59 -47 -59h-221q-111 0 -314 -52q-156 -39 -241 -73q-109 -41 -283 -127v-12q0 -78 51 -160q47 -78 123 -135q16 -16 51 -43q82 -49 187 -50q63 0 145 23q8 2 154 47q61 20 174 109q100 76 149 133q10 18 19 37q20 33 39 32 q33 0 51 -57q14 -43 14 -88q0 -80 -28.5 -125t-131.5 -127l-112 -94q-74 -55 -135 -78q-229 -80 -338 -80q-68 0 -154 34t-135 81q-121 115 -154 172q-96 170 -96 401z" />
<glyph unicode="F" horiz-adv-x="1071" d="M229 356q-5 286 -5 522t5 422q2 27 9 80q18 201 73 201q4 0 19.5 -15.5t21.5 -15.5q4 0 121 25q125 27 150 31q78 10 145 12h96q10 2 41 11t37 9q66 0 66 -135q0 -59 0 -51q-2 -27 -29 -63q-20 -27 -115 -37q-19 1 -44 0q-51 0 -128 -2l-293 -54q-27 -4 -43 -16 q-6 -68 -6 -209l2 -2q143 41 223 49q332 39 443 39q31 0 45 -6q43 -23 43 -127q0 -35 -12 -76q-18 -51 -47 -55l-62 -4q-43 -8 -127 -17q-158 -6 -240 -14q-145 -16 -268 -59v-371q0 -4 10.5 -147.5t10.5 -149.5q0 -33 -17 -84q-20 -70 -55 -70q-25 0 -45 50q-14 37 -14 53 v207q0 6 -5.5 31.5t-5.5 37.5z" />
<glyph unicode="G" horiz-adv-x="1323" d="M174 684q0 104 45 317q41 203 68.5 251t93.5 147q25 33 102.5 94t118.5 78q195 88 270 88q242 0 242 -199q0 -39 -14 -82q-20 -57 -49 -57q-6 0 -36 19.5t-44 23.5q-37 12 -99 12q-57 0 -172 -49q-100 -43 -129 -70q-45 -31 -120 -100q-49 -57 -76 -121 q-23 -49 -45.5 -181t-22.5 -210q0 -104 45 -176t168 -164q20 -12 77.5 -25.5t96.5 -13.5q109 0 250 86l60 31q41 23 59 53q23 41 22 150q0 39 -26 155q-55 -29 -205 -114q-127 -74 -133 -74q-31 0 -51 63q-14 45 -15 72q0 20 12.5 67.5t22.5 57.5q57 53 98 76 q455 240 476 239q29 0 49 -57q16 -43 16 -84q0 -31 -12 -74q-16 -53 -39 -65l-88 -43q23 -131 22.5 -267.5t1.5 -123.5q-4 -78 -30 -135q-55 -117 -217 -209q-152 -86 -273 -86q-213 0 -340 168q-37 43 -96 127q-84 145 -84 405z" />
<glyph unicode="H" horiz-adv-x="1263" d="M195 1460q0 41 10 84q18 70 55 70q47 0 66 -129q4 -27 10 -160q2 -10 6 -49t4 -47v-279l131 25q94 14 164 15t287 30q2 0 10 8v481q-2 31 18 93q23 80 58 79q41 0 55 -86q5 -37 5 -72q0 -12 -1 -24q-7 -131 -7 -287t7 -338q2 -41 9.5 -138t7.5 -103v-254q0 -6 8 -123 t8 -123q0 -41 -16 -92q-23 -63 -54 -64q-23 0 -39 26t-20 50q-18 162 -19 260v252l-4 65q-4 65 -6 101q-106 -12 -307 -26q-154 0 -295 -46q0 -47 6 -142t6 -91v-250q0 -4 5.5 -30.5t5.5 -39.5q0 -45 -15 -90q-23 -61 -59 -61q-29 0 -51 53q-16 39 -17 58v258q0 6 -5 58 t-5 60v707q0 8 -11 155.5t-11 155.5z" />
<glyph unicode="I" horiz-adv-x="862" d="M223 117q0 135 62 135q6 0 19 -5t22 -5q63 0 63 51v323q0 8 10.5 260t10.5 259q0 157 1 156l1 -34q-2 104 -29 105q-6 0 -48 -8t-48 -8q-63 0 -64 137q0 45 4 63q8 39 29 60q14 14 109 24q174 20 208 21q70 0 90.5 -7.5t34.5 -58.5q10 -41 11 -72q0 -27 -11 -69 q-14 -53 -33.5 -58.5t-132.5 -7.5v-536q0 -8 -10 -159t-12 -155v-256q55 2 96 2q81 0 101 -8q16 -6 32 -59q12 -45 13 -70q0 -29 -17 -76q-18 -59 -45 -59h-186q-6 0 -91 -16.5t-91 -16.5q-99 1 -99 148z" />
<glyph unicode="J" horiz-adv-x="1314" d="M219 379q0 240 187 338q25 12 96 12q72 0 139 -29q16 -8 28.5 -52t12.5 -70q0 -45 -14 -82q-23 -51 -60 -52q-6 0 -55 10.5t-55 10.5q-31 0 -64 -6q-10 -2 -51 -38t-41 -50q0 -12 33 -45t43 -39q35 -20 61 -27q82 -16 156 -16q125 0 223 30q170 53 170 181q0 -12 -18 127 q-25 174 -78 381q-84 322 -94 368h-60q-4 0 -43 -10t-47 -10q-61 0 -61 131q0 61 26 114q2 4 21 15q41 10 104 20q133 14 248 31q14 3 44 3q15 0 34 -1q43 -37 43 -127q0 -88 -29 -113q-20 -18 -63 -20q-59 -6 -88 -14l86 -314q98 -494 98 -585q0 -106 -23 -185 q-2 -8 -47 -92q-55 -100 -127 -129q-158 -63 -319 -63q-416 0 -416 397z" />
<glyph unicode="K" horiz-adv-x="1134" d="M201 469q0 6 5 97t5 96v278q0 143 16 334q29 311 84 311q59 0 60 -139q0 -8 -15.5 -126t-15.5 -126q0 2 0 -123q-2 -123 -2 -164q90 119 166 238l264 397l29 51q23 33 43 33q27 0 45 -53q14 -41 14 -76q0 -76 -43 -143q-236 -362 -235 -361q0 -6 59 -139 q127 -285 147 -326q86 -178 183 -315q18 -27 18 -100q0 -35 -10 -72q-16 -59 -49 -59q-25 0 -74 71l-43 74q-74 115 -166 324l-141 323q-12 16 -37 55q-55 -84 -176 -225q0 -4 -3 -13t-3 -18v-202q0 -6 7 -125t7 -125q0 -39 -10 -80q-16 -66 -49 -66q-29 0 -52 72 q-18 55 -18 82v180q0 6 -5 80t-5 80z" />
<glyph unicode="L" horiz-adv-x="1101" d="M203 1411q0 221 63 221q25 0 44.5 -41t21.5 -104v-96q20 -303 69 -914q4 -51 23 -119q6 -27 10 -53q8 -35 23 -49q14 0 20 2l221 113q127 61 244 106q100 37 90 37q31 0 51 -55q14 -45 15 -84q0 -72 -29 -117q-12 -18 -30.5 -24.5l-34.5 -12.5q-102 -39 -224 -92 l-155 -86q-119 -66 -160 -66q-96 0 -143 205l-25 92q-16 78 -23 164l-8 150q-12 139 -33 413q-6 94 -20 226q-10 92 -10 184z" />
<glyph unicode="M" horiz-adv-x="1552" d="M207 1436q0 197 61 196q10 0 43 -37q12 -2 33 -12q29 -45 97.5 -187.5t226.5 -506.5q41 -106 96 -279q80 -254 90 -282q4 0 8 8q16 86 62 268l159 479q25 88 117 342q20 55 43 111q43 96 74 96q43 0 63 -131q10 -80 11 -143v-1276q0 -18 -17 -57q-20 -49 -43 -50 q-27 0 -51 64q-20 53 -20 70v546q0 27 10 90l-2 441l-101 -316q-51 -141 -137 -409l-43 -211q-29 -131 -74 -195l-12 -47q-16 -45 -45 -45q-20 0 -43 39q-8 31 -25 86q-14 25 -38 78q-43 152 -140 446q-106 299 -264 605q0 -51 7 -155t7 -99v-238q0 -8 15.5 -260t15.5 -258 q0 -43 -10 -88q-16 -70 -51 -70q-51 0 -62 144q-6 45 -12 167q-49 994 -49 1076z" />
<glyph unicode="N" horiz-adv-x="1277" d="M186 1503q0 37 15 78q16 51 45 51q20 0 30 -16l29 -72q12 -8 29 -26q35 -76 117 -226q55 -92 184 -273t188 -280l185 -333q2 20 -2 63l-5 43v272q0 6 -10 305.5t-10 305.5q0 233 59 233q45 0 52 -69q29 -289 28 -635v-351q0 -6 5 -30.5t5 -30.5v-244q0 -6 10.5 -77.5 t10.5 -77.5q0 -41 -12 -80q-18 -55 -47 -56q-16 0 -27 13q-10 27 -29 65q-111 156 -155 238q-37 61 -129 233l-54 72l-219 334q-94 127 -149 242q2 -76 10 -256q6 -158 6 -164v-330q0 -49 12 -156q2 -18 10.5 -60t8.5 -48q0 -37 -10 -78q-16 -63 -50 -64q-43 0 -69 144 q-20 106 -21 190v266q0 6 -5 78t-5 78v217q0 6 -10 126t-10 126v191q0 4 -5.5 32.5t-5.5 36.5z" />
<glyph unicode="O" horiz-adv-x="1701" d="M203 647q0 182 53 371q61 217 174 356l80 111q55 76 113 104q127 70 354 70q440 0 571 -469q18 -68 19 -229q0 -125 -6 -158q-63 -262 -111 -361q-74 -158 -240 -288q-125 -98 -206 -136q-92 -41 -203 -41q-418 0 -580 459q-18 51 -18 211zM336 651q0 -74 2 -76 q135 -315 467 -315q152 0 305 117q164 123 209 192q8 12 59 133q25 55 35 107q27 129 27 143q0 178 -120 300t-310 122q-43 0 -47 -2l-33 -14q-6 0 -18.5 3t-18.5 3q-41 0 -97 -31l-57 -30q-6 0 -23.5 14t-23.5 14q-55 0 -176 -172q-100 -143 -117 -186q-63 -175 -63 -322z " />
<glyph unicode="P" horiz-adv-x="1095" d="M164 1370q0 63 47 131q10 12 16 43t11 43q14 27 36 27q18 0 43 -39q131 57 248 57q231 0 441 -209q33 -33 55 -73q41 -78 41 -217q0 -274 -246 -445q-37 -27 -147 -63q-186 -61 -269 -62q-51 0 -127 25q0 -84 8.5 -255t8.5 -163q0 -193 -56 -193q-18 0 -33.5 23t-17.5 43 q-25 379 -24 422v604q0 168 -2 180q-8 12 -20.5 41t-12.5 80zM311 848q59 -35 129 -35q96 0 275 66l102 43q57 39 109 102q59 72 59 121q0 37 -88 108q-57 45 -109 76q-66 37 -129 49q-37 6 -98 6q-104 0 -239 -61q-10 -104 -11 -113v-362z" />
<glyph unicode="Q" horiz-adv-x="1732" d="M182 784q0 190 31 254q115 254 264 416q190 207 391 207q35 0 109 -19q6 -10 27 -24q43 -2 131 -14q219 -51 348 -308q104 -209 104 -428q0 -188 -65 -372q-20 -59 -66 -177q-4 -8 -29 -51q-20 -35 -20 -41q0 -12 61 -41q18 -8 27 -32q18 -53 18 -103q0 -45 -14 -88 q-18 -57 -53 -57q-41 0 -100 67l-95 115q-41 -29 -94 -45q-139 -41 -199 -41q-8 0 -86.5 -3t-85.5 -3q-164 0 -264 59q-174 102 -260 316q-80 204 -80 413zM311 782q0 -111 68 -243q72 -145 178 -207q80 -47 229 -47q6 0 84 3t86 3q45 0 129 24q-131 215 -251 478l-164 376 q-14 41 -37 115q-82 -49 -191 -209q-72 -106 -116 -194q-15 -25 -15 -99zM780 1329l207 -457q147 -307 287 -462q53 29 115.5 187.5t62.5 262.5q0 166 -115 309q-127 160 -311 160h-246z" />
<glyph unicode="R" horiz-adv-x="1146" d="M174 1210q0 199 2 220q10 145 60 145q27 0 43 -39q111 96 288 96q39 0 174 -47q319 -111 320 -481q0 -313 -346 -512q-37 -20 -101 -41q88 -76 271 -213q72 -43 205 -141q8 -6 19 -47t11 -66q0 -43 -14 -84q-18 -51 -53 -51q-25 0 -197 123q-268 193 -463 401 q-12 12 -76 33v-397q0 -18 -16 -58q-20 -45 -45 -45q-27 0 -45 49q-16 37 -16 56v387q0 6 -10.5 356t-10.5 356zM297 782h123h6q52 0 166 33q63 18 106 49l150 113q29 20 57.5 67.5t28.5 69.5q0 96 -156 178q-131 70 -217 70q-141 0 -202.5 -53.5t-61.5 -71.5q-1 -33 -1 -72 q0 -98 7 -237q2 -49 2 -83t-2 -52z" />
<glyph unicode="S" horiz-adv-x="1386" d="M102 481q0 115 76 202t170 87q84 0 84 -135q0 -125 -55 -133q-37 -2 -101 -21q-16 -12 -34 -37q70 -115 301 -211q41 -16 155 -16q109 0 146 12.5t180 98.5q121 72 166 186l24 47q23 41 23 55q0 6 -7 28l-9 28q-14 117 -160 205q-45 27 -158 26q-53 0 -177 -20.5 t-134 -20.5q-152 0 -238 96q-82 90 -82 236q0 193 120 315.5t313 122.5q266 0 266 -209q0 -31 -15 -75q-18 -61 -47 -62q-4 0 -36.5 27.5t-55.5 36.5q-39 12 -110 12q-55 0 -70 -2q-39 -6 -127 -43q-10 -4 -57 -45t-47 -58q0 -20 40 -45q35 -23 54 -24q88 -12 92 -12 t129 21.5t188 21.5q68 0 78 -2q37 -4 98 -33q74 -33 149 -129.5t89 -177.5l29 -97q12 -59 12 -127q0 -78 -31 -159q-12 -35 -68.5 -156t-181.5 -217q-115 -90 -233 -121q-47 -10 -154 -10h-78q-16 2 -114 26q-6 2 -103 56q-135 76 -200 147q-45 47 -74 146q-25 85 -25 159z " />
<glyph unicode="T" horiz-adv-x="1118" d="M33 1425q0 74 37 121q4 6 233 41q240 35 301 35h463q4 0 11 5t16 5q35 0 55 -51q14 -39 14 -84q0 -43 -16 -86q-23 -53 -60 -53h-362q-47 -485 -47 -596v-684q0 -18 -16 -58q-20 -49 -44 -49q-23 0 -43 47q-16 39 -16 56v817q0 2 14 174q16 193 23 287q-86 -2 -289 -29 q-31 -4 -106 -16q-68 -12 -74 -13q-29 0 -45 2q-8 4 -21 15q-28 40 -28 114z" />
<glyph unicode="U" horiz-adv-x="1148" d="M147 1071q0 141 5 418q2 31 18 92q23 90 55 90q16 0 32.5 -28.5t18.5 -43.5q6 -63 7 -65q-2 -20 -8.5 -62t-6.5 -49v-483q0 -145 31 -326q14 -86 23 -112q16 -74 47 -137q27 -53 112 -89q72 -31 129 -30q51 0 152 16q74 12 145 60q14 10 37 55q23 37 47 43v170 q-10 59 -24 176q-10 172 -27 364q-10 109 -10 220q0 276 63 276q25 0 43 -47q14 -37 15 -55v-312q0 -4 8 -75q8 -78 10 -105q4 -82 18 -256q2 -27 15 -102q10 -68 10 -74v-192q0 -4 5 -22.5t7 -31.5q2 -23 2 -98q0 -201 -59 -201q-39 0 -53 88q0 4 -4 13q-43 -78 -144 -119 q-78 -33 -159 -35q-8 0 -49.5 -6t-47.5 -6q-70 0 -161 41q-102 45 -140 110q-23 37 -59 117q-45 143 -62 260q-41 326 -41 553z" />
<glyph unicode="V" horiz-adv-x="1216" d="M106 1499q0 37 15 78q16 53 43 53q23 0 53 -71l76 -232l291 -893q23 -68 61 -139q29 49 55 133l37 127l92 287q57 168 113 305q10 25 39 131q10 39 72 174q74 164 102 164q49 0 55 -131q0 -68 -55 -185q-63 -131 -63 -135q-27 -111 -64 -200q-78 -182 -139 -387 q-92 -295 -103 -326q-49 -141 -106 -215l-20 -35q-9 -16 -31 -16q-37 0 -82 155q-18 41 -45 111l-211 653l-96 281q-89 264 -89 313z" />
<glyph unicode="W" horiz-adv-x="1859" d="M143 1479q0 39 15 82q16 57 45 57q12 0 28.5 -22.5t18.5 -30.5q8 -41 29 -119l204 -522q106 -276 121 -312q84 -197 172 -327q37 106 86 463q6 37 35 133q27 90 27 94q0 8 -54.5 153.5t-87.5 221.5q-18 18 -43 53q-23 49 -22 98q0 35 14 78q18 53 45 53q47 0 98 -110 l52 -129q47 -111 100 -271l80 -245q37 -109 141 -310q86 -168 139 -252q4 16 187 650l82 288q10 33 25.5 95.5t43.5 134.5q47 119 88 119q27 0 43 -54q14 -41 15 -78q0 -27 -19 -67q-29 -66 -36 -94q-104 -313 -312 -1076q0 -2 -8 -71q-2 -29 -31 -101q-35 -92 -67 -92 q-25 0 -41 39l-21 55q-217 367 -336 680q-20 -57 -32 -163q-16 -137 -25 -174q-31 -156 -57 -269l-43 -63q-10 -27 -21.5 -53.5t-42.5 -26.5q-33 0 -80 78l-45 84q-106 193 -217 475q-188 477 -209 522q-84 199 -84 326z" />
<glyph unicode="X" horiz-adv-x="1333" d="M195 1497q0 135 61 135q23 0 33 -16q10 -29 35 -80l148 -265q75 -132 155 -239q4 0 6 4q53 117 147 293q35 66 99 156q106 147 159 147q39 0 58 -59q12 -37 12 -74q0 -20 -11.5 -60t-18.5 -49.5t-43 -28t-165 -230t-129 -252.5q0 -6 56 -86q59 -86 110 -144l86 -90 l142 -186q66 -86 82 -113q25 -47 24 -102q0 -31 -16 -78q-20 -61 -49 -62q-20 0 -39 29l-174 238l-140 153l-174 240q-133 -238 -186 -381q-27 -76 -49 -150l-21 -69l-24 -90q-27 -80 -60 -80q-31 0 -47 53q-14 41 -14 80q0 51 28 145q33 117 111 340q33 80 96 201 q55 104 56 107q0 4 -50 69q-55 76 -75 109q-33 66 -105 196l-78 146q-36 71 -36 143z" />
<glyph unicode="Y" horiz-adv-x="1366" d="M137 1499q0 33 15 78q16 55 43 55q16 0 106 -110q109 -135 246 -279l153 -143q106 -102 138 -166q49 70 106 178q29 66 86 182l148 248q8 14 52 52t62 38q29 0 47 -51q16 -43 17 -80q0 -68 -31 -106l-80 -82q-8 -18 -28 -58q-35 -47 -97 -151l-114 -232 q-100 -166 -285 -503q-35 -70 -53 -162l-17 -121q-23 -106 -63 -106q-35 0 -51 63q-10 41 -11 74q0 20 13 86q6 47 20 131q2 16 51 168q12 37 26.5 68.5t61.5 109.5q43 68 43 74q0 4 -198 202q-233 236 -363 404q-43 59 -43 139z" />
<glyph unicode="Z" horiz-adv-x="1667" d="M203 117q0 53 55 196q18 23 57 82q31 66 107 191l90 94q10 20 35 59l246 299q6 6 276 308h-242q-6 0 -156.5 -17.5t-158.5 -17.5q-76 0 -76 137q0 37 13.5 79t28 50t59.5 12q70 10 186 17q14 0 61 8t54 8h280q6 0 35 6t43 8q27 2 143 2h45q29 2 43 2q61 0 89 -24 q37 -33 36 -123q0 -92 -57 -135l-172 -119q-59 -47 -156 -115q-51 -35 -114 -106q-219 -242 -441 -522q-10 -20 -38.5 -56.5t-57.5 -66.5q-43 -45 -74 -103q41 4 127 17q80 12 84 12h928q31 0 53 -57q16 -45 17 -82q0 -23 -15 -72q-18 -66 -43 -65h-940q-8 0 -173 -25 t-171 -25h-51q-27 12 -43 66q-12 43 -12 78z" />
<glyph unicode="[" horiz-adv-x="794" d="M266 193v534q0 6 7.5 107.5t7.5 107.5v182q0 4 6 77t8 108q2 66 2 131q4 76 22 131q14 49 41 59q16 8 113 8q4 0 37 2q27 2 43 0q23 -2 39 -14q37 -29 37 -119q0 -31 -13 -69q-16 -53 -41 -58q-4 -2 -157 -2q-14 -203 -15 -221v-190q0 -6 -7 -104.5t-7 -102.5v-510l1 -2 q1 -2 9 -2q4 0 80 30.5t82 30.5q35 0 51 -63q10 -37 11 -68q0 -68 -23 -102q-12 -20 -100 -49l-54 -25q-31 -14 -65 -14q-41 0 -57 26q-6 10 -31 78q-27 76 -27 103z" />
<glyph unicode="\" horiz-adv-x="956" d="M205 1495q0 45 14 84q18 53 51 53q76 0 129 -172q23 -84 72 -250l88 -272q55 -178 72 -268q23 -123 61 -310q10 -51 41 -124q23 -55 23 -107q0 -39 -13 -82q-18 -59 -47 -59q-57 0 -102 180q-25 102 -49 242q-18 111 -56 243q-98 358 -208 684q-4 8 -24.5 21.5 t-27.5 27.5q-24 48 -24 109z" />
<glyph unicode="]" horiz-adv-x="868" d="M283 127q0 33 16 86q23 70 55 70q12 0 37 -27h125q0 25 7 79t7 58v606q0 43 -41 359q-14 -4 -73 -31q-49 -23 -58 -22q-27 0 -45 55q-14 45 -14 80q0 72 29 112q14 23 87.5 51.5t112.5 28.5q51 0 64.5 -50t21.5 -165q6 -88 15 -178q4 -47 18 -164q10 -100 10 -106v-609 q0 -4 -6 -31.5t-8 -41.5q0 -68 -8 -203q-10 -74 -47 -90q-14 -6 -133 -6h-117q-55 16 -55 139z" />
<glyph unicode="^" horiz-adv-x="1036" d="M213 1184q0 18 10 54t17 42l309 317q43 41 65 41q29 0 45 -24q43 -72 136 -213l53 -58q41 -47 41 -122q0 -31 -12 -66q-14 -43 -41 -43q-14 0 -58 53q-37 43 -162 242l-133 -123q-8 -6 -116 -117q-90 -94 -101 -94q-29 0 -45 53q-8 35 -8 58z" />
<glyph unicode="_" horiz-adv-x="616" d="M49 43q0 117 51 117q4 0 21.5 -5t23.5 -8h107q4 0 146.5 6.5t146.5 6.5h63q47 -8 47 -113q0 -31 -10 -65q-14 -49 -37 -50q-68 -2 -217 -8q-137 -6 -139 -6q-121 0 -148 10q-55 23 -55 115z" />
<glyph unicode="`" horiz-adv-x="722" d="M256 1479q0 37 10 77q18 66 51 66q41 0 115 -125q25 -35 66 -102q18 -39 18 -107q0 -43 -12 -86q-18 -55 -53 -55t-70 59l-41 82q-27 29 -66 86q-18 44 -18 105z" />
<glyph unicode="a" horiz-adv-x="1095" d="M197 84q0 506 161 954q41 117 144 258q57 80 170 174q51 45 132 101.5t91 56.5q33 0 53 -80q16 -57 17 -92v-1370q0 -27 -19 -63q-23 -43 -45 -43q-27 0 -45 43q-16 35 -16 59v240q0 16 -15 380q-145 -12 -290 -92q-154 -84 -193 -186q-27 -66 -29 -209l1 28q1 0 1 -167 q0 -74 21 -191q6 -23 22 -51q45 -66 45 -141q0 -33 -14 -76q-18 -59 -45 -59q-55 0 -111 182q-36 127 -36 344zM434 809q88 68 207 111q109 39 188 38q0 102 5 355q-131 -80 -228 -191q-102 -117 -164 -278q-8 -12 -8 -19v-16z" />
<glyph unicode="b" horiz-adv-x="1198" d="M164 1329q0 6 6 40t8 52q2 59 6 119q14 115 56 115q29 0 44 -43t19 -43t37 19.5t45 25.5q66 31 158 31q293 0 293 -275q0 -141 -76 -237l67 -19q166 -47 254 -242q72 -154 72 -317q0 -127 -80 -258q-88 -147 -228 -206.5t-151 -63.5q-63 -20 -141 -21q-152 0 -229 47 q-12 -18 -23 -37q-20 -33 -35 -32q-35 0 -53 55q-27 80 -29 260l-4 928q0 18 -8 58t-8 44zM303 1278q0 -197 8 -203q88 18 204 104.5t165 168.5q-82 23 -139 22q-129 0 -238 -92zM315 334q113 -55 238 -55q96 0 201 45q84 37 139 69q47 29 89 90.5t42 94.5q0 12 -31 92 q-76 195 -356 194q-94 0 -164 -18q-47 -12 -158 -58v-454z" />
<glyph unicode="c" horiz-adv-x="1224" d="M158 825q0 242 121 496q160 334 432 334q121 0 207 -56q109 -66 108 -190q0 -33 -12 -74q-20 -57 -51 -57q-6 0 -43 31q-43 35 -58 43q-49 29 -153 28q-201 0 -324 -219q-98 -174 -98 -352q0 -348 196 -512q18 -14 64 -31q59 -18 86 -18q6 0 26.5 4t32.5 4q119 10 219 63 q133 70 179 191q8 25 14 49q18 43 43 43q63 0 63 -149q0 -80 -49 -177q-66 -135 -209 -217q-129 -72 -260 -75q-6 0 -27.5 -5.5t-29.5 -5.5q-35 0 -94 21q-213 72 -314 366q-69 209 -69 465z" />
<glyph unicode="d" horiz-adv-x="1298" d="M92 1358q0 86 55 139q41 41 158 98q10 0 31 2q162 55 340 56q211 0 338 -123q47 -35 131 -115q53 -68 76 -129q63 -188 63 -412q0 -403 -260 -620q-66 -57 -201 -162q-82 -53 -227 -88q-27 -6 -166 -6q-4 0 -19.5 -8t-21.5 -8q-70 0 -70 272v195q0 6 -5 36.5t-5 36.5v185 q0 33 -18 303q-20 293 -29 293q-8 0 -47 -36t-61 -36q-29 0 -48 57q-14 43 -14 70zM387 1350l51 -844q4 -101 4 -162t-4 -82h131q6 0 30 8.5t28 10.5q117 25 255 130t224 238q59 92 59 232q0 51 -18 147q-10 55 -31 102q-14 35 -31 54q-123 131 -221 174q-74 33 -194 33 q-164 0 -283 -41z" />
<glyph unicode="e" horiz-adv-x="1525" d="M170 651q0 260 88 482q92 238 266 374q168 131 295 131q37 0 131 -20q129 -27 185 -64q76 -53 75 -157q0 -33 -12 -74q-18 -55 -51 -55q-6 0 -31 16q-31 20 -41 25q-145 59 -252 59q-131 0 -271 -128t-218 -306q-4 -4 8 -4q-10 0 125 55q403 166 782 166q102 0 125 -6 q16 -6 31 -58q12 -43 12 -69q0 -33 -14 -76q-18 -59 -47 -59h-221q-111 0 -314 -52q-156 -39 -241 -73q-109 -41 -283 -127v-12q0 -78 51 -160q47 -78 123 -135q16 -16 51 -43q82 -49 187 -50q63 0 145 23q8 2 154 47q61 20 174 109q100 76 149 133q10 18 19 37q20 33 39 32 q33 0 51 -57q14 -43 14 -88q0 -80 -28.5 -125t-131.5 -127l-112 -94q-74 -55 -135 -78q-229 -80 -338 -80q-68 0 -154 34t-135 81q-121 115 -154 172q-96 170 -96 401z" />
<glyph unicode="f" horiz-adv-x="1071" d="M229 356q-5 286 -5 522t5 422q2 27 9 80q18 201 73 201q4 0 19.5 -15.5t21.5 -15.5q4 0 121 25q125 27 150 31q78 10 145 12h96q10 2 41 11t37 9q66 0 66 -135q0 -59 0 -51q-2 -27 -29 -63q-20 -27 -115 -37q-19 1 -44 0q-51 0 -128 -2l-293 -54q-27 -4 -43 -16 q-6 -68 -6 -209l2 -2q143 41 223 49q332 39 443 39q31 0 45 -6q43 -23 43 -127q0 -35 -12 -76q-18 -51 -47 -55l-62 -4q-43 -8 -127 -17q-158 -6 -240 -14q-145 -16 -268 -59v-371q0 -4 10.5 -147.5t10.5 -149.5q0 -33 -17 -84q-20 -70 -55 -70q-25 0 -45 50q-14 37 -14 53 v207q0 6 -5.5 31.5t-5.5 37.5z" />
<glyph unicode="g" horiz-adv-x="1323" d="M174 684q0 104 45 317q41 203 68.5 251t93.5 147q25 33 102.5 94t118.5 78q195 88 270 88q242 0 242 -199q0 -39 -14 -82q-20 -57 -49 -57q-6 0 -36 19.5t-44 23.5q-37 12 -99 12q-57 0 -172 -49q-100 -43 -129 -70q-45 -31 -120 -100q-49 -57 -76 -121 q-23 -49 -45.5 -181t-22.5 -210q0 -104 45 -176t168 -164q20 -12 77.5 -25.5t96.5 -13.5q109 0 250 86l60 31q41 23 59 53q23 41 22 150q0 39 -26 155q-55 -29 -205 -114q-127 -74 -133 -74q-31 0 -51 63q-14 45 -15 72q0 20 12.5 67.5t22.5 57.5q57 53 98 76 q455 240 476 239q29 0 49 -57q16 -43 16 -84q0 -31 -12 -74q-16 -53 -39 -65l-88 -43q23 -131 22.5 -267.5t1.5 -123.5q-4 -78 -30 -135q-55 -117 -217 -209q-152 -86 -273 -86q-213 0 -340 168q-37 43 -96 127q-84 145 -84 405z" />
<glyph unicode="h" horiz-adv-x="1263" d="M195 1460q0 41 10 84q18 70 55 70q47 0 66 -129q4 -27 10 -160q2 -10 6 -49t4 -47v-279l131 25q94 14 164 15t287 30q2 0 10 8v481q-2 31 18 93q23 80 58 79q41 0 55 -86q5 -37 5 -72q0 -12 -1 -24q-7 -131 -7 -287t7 -338q2 -41 9.5 -138t7.5 -103v-254q0 -6 8 -123 t8 -123q0 -41 -16 -92q-23 -63 -54 -64q-23 0 -39 26t-20 50q-18 162 -19 260v252l-4 65q-4 65 -6 101q-106 -12 -307 -26q-154 0 -295 -46q0 -47 6 -142t6 -91v-250q0 -4 5.5 -30.5t5.5 -39.5q0 -45 -15 -90q-23 -61 -59 -61q-29 0 -51 53q-16 39 -17 58v258q0 6 -5 58 t-5 60v707q0 8 -11 155.5t-11 155.5z" />
<glyph unicode="i" horiz-adv-x="763" d="M307 1470q0 41 10 84q18 70 56 70q43 0 73 -156q25 -117 25 -163v-664q0 -6 -8 -36t-8 -36v-471q0 -27 -19 -69q-23 -51 -49 -52q-29 0 -51 60q-16 47 -17 67v508q0 6 8.5 37t8.5 39v610q0 6 -14.5 86t-14.5 86z" />
<glyph unicode="j" horiz-adv-x="1298" d="M213 379q0 240 186 338q25 12 97 12t139 -29q16 -8 28.5 -52t12.5 -70q0 -45 -14 -82q-23 -51 -60 -52q-6 0 -55 10.5t-55 10.5q-31 0 -64 -6q-10 -2 -51 -38t-41 -50q0 -12 32.5 -45t43.5 -39q35 -20 61 -27q82 -16 156 -16q125 0 223 30q170 53 170 181q0 -12 -18 127 q-25 174 -78 381q-84 322 -95 368h-59q-4 0 -43 -10t-47 -10q-61 0 -61 131q0 61 26 114q2 4 21 15q41 10 104 20q133 14 248 31q14 3 44 3q15 0 34 -1q43 -37 43 -127q0 -88 -29 -113q-20 -18 -63 -20q-59 -6 -88 -14l86 -314q98 -494 98 -585q0 -106 -23 -185 q-2 -8 -47 -92q-55 -100 -127 -129q-158 -63 -319 -63q-416 0 -416 397z" />
<glyph unicode="k" horiz-adv-x="1134" d="M201 469q0 6 5 97t5 96v278q0 143 16 334q29 311 84 311q59 0 60 -139q0 -8 -15.5 -126t-15.5 -126q0 2 0 -123q-2 -123 -2 -164q90 119 166 238l264 397l29 51q23 33 43 33q27 0 45 -53q14 -41 14 -76q0 -76 -43 -143q-236 -362 -235 -361q0 -6 59 -139 q127 -285 147 -326q86 -178 183 -315q18 -27 18 -100q0 -35 -10 -72q-16 -59 -49 -59q-25 0 -74 71l-43 74q-74 115 -166 324l-141 323q-12 16 -37 55q-55 -84 -176 -225q0 -4 -3 -13t-3 -18v-202q0 -6 7 -125t7 -125q0 -39 -10 -80q-16 -66 -49 -66q-29 0 -52 72 q-18 55 -18 82v180q0 6 -5 80t-5 80z" />
<glyph unicode="l" horiz-adv-x="1101" d="M203 1411q0 221 63 221q25 0 44.5 -41t21.5 -104v-96q20 -303 69 -914q4 -51 23 -119q6 -27 10 -53q8 -35 23 -49q14 0 20 2l221 113q127 61 244 106q100 37 90 37q31 0 51 -55q14 -45 15 -84q0 -72 -29 -117q-12 -18 -30.5 -24.5l-34.5 -12.5q-102 -39 -224 -92 l-155 -86q-119 -66 -160 -66q-96 0 -143 205l-25 92q-16 78 -23 164l-8 150q-12 139 -33 413q-6 94 -20 226q-10 92 -10 184z" />
<glyph unicode="m" horiz-adv-x="1552" d="M207 1436q0 197 61 196q10 0 43 -37q12 -2 33 -12q29 -45 97.5 -187.5t226.5 -506.5q41 -106 96 -279q80 -254 90 -282q4 0 8 8q16 86 62 268l159 479q25 88 117 342q20 55 43 111q43 96 74 96q43 0 63 -131q10 -80 11 -143v-1276q0 -18 -17 -57q-20 -49 -43 -50 q-27 0 -51 64q-20 53 -20 70v546q0 27 10 90l-2 441l-101 -316q-51 -141 -137 -409l-43 -211q-29 -131 -74 -195l-12 -47q-16 -45 -45 -45q-20 0 -43 39q-8 31 -25 86q-14 25 -38 78q-43 152 -140 446q-106 299 -264 605q0 -51 7 -155t7 -99v-238q0 -8 15.5 -260t15.5 -258 q0 -43 -10 -88q-16 -70 -51 -70q-51 0 -62 144q-6 45 -12 167q-49 994 -49 1076z" />
<glyph unicode="n" horiz-adv-x="1277" d="M186 1503q0 37 15 78q16 51 45 51q20 0 30 -16l29 -72q12 -8 29 -26q35 -76 117 -226q55 -92 184 -273t188 -280l185 -333q2 20 -2 63l-5 43v272q0 6 -10 305.5t-10 305.5q0 233 59 233q45 0 52 -69q29 -289 28 -635v-351q0 -6 5 -30.5t5 -30.5v-244q0 -6 10.5 -77.5 t10.5 -77.5q0 -41 -12 -80q-18 -55 -47 -56q-16 0 -27 13q-10 27 -29 65q-111 156 -155 238q-37 61 -129 233l-54 72l-219 334q-94 127 -149 242q2 -76 10 -256q6 -158 6 -164v-330q0 -49 12 -156q2 -18 10.5 -60t8.5 -48q0 -37 -10 -78q-16 -63 -50 -64q-43 0 -69 144 q-20 106 -21 190v266q0 6 -5 78t-5 78v217q0 6 -10 126t-10 126v191q0 4 -5.5 32.5t-5.5 36.5z" />
<glyph unicode="o" horiz-adv-x="1701" d="M203 647q0 182 53 371q61 217 174 356l80 111q55 76 113 104q127 70 354 70q440 0 571 -469q18 -68 19 -229q0 -125 -6 -158q-63 -262 -111 -361q-74 -158 -240 -288q-125 -98 -206 -136q-92 -41 -203 -41q-418 0 -580 459q-18 51 -18 211zM336 651q0 -74 2 -76 q135 -315 467 -315q152 0 305 117q164 123 209 192q8 12 59 133q25 55 35 107q27 129 27 143q0 178 -120 300t-310 122q-43 0 -47 -2l-33 -14q-6 0 -18.5 3t-18.5 3q-41 0 -97 -31l-57 -30q-6 0 -23.5 14t-23.5 14q-55 0 -176 -172q-100 -143 -117 -186q-63 -175 -63 -322z " />
<glyph unicode="p" horiz-adv-x="1095" d="M164 1370q0 63 47 131q10 12 16 43t11 43q14 27 36 27q18 0 43 -39q131 57 248 57q231 0 441 -209q33 -33 55 -73q41 -78 41 -217q0 -274 -246 -445q-37 -27 -147 -63q-186 -61 -269 -62q-51 0 -127 25q0 -84 8.5 -255t8.5 -163q0 -193 -56 -193q-18 0 -33.5 23t-17.5 43 q-25 379 -24 422v604q0 168 -2 180q-8 12 -20.5 41t-12.5 80zM311 848q59 -35 129 -35q96 0 275 66l102 43q57 39 109 102q59 72 59 121q0 37 -88 108q-57 45 -109 76q-66 37 -129 49q-37 6 -98 6q-104 0 -239 -61q-10 -104 -11 -113v-362z" />
<glyph unicode="q" horiz-adv-x="1732" d="M182 784q0 190 31 254q115 254 264 416q190 207 391 207q35 0 109 -19q6 -10 27 -24q43 -2 131 -14q219 -51 348 -308q104 -209 104 -428q0 -188 -65 -372q-20 -59 -66 -177q-4 -8 -29 -51q-20 -35 -20 -41q0 -12 61 -41q18 -8 27 -32q18 -53 18 -103q0 -45 -14 -88 q-18 -57 -53 -57q-41 0 -100 67l-95 115q-41 -29 -94 -45q-139 -41 -199 -41q-8 0 -86.5 -3t-85.5 -3q-164 0 -264 59q-174 102 -260 316q-80 204 -80 413zM311 782q0 -111 68 -243q72 -145 178 -207q80 -47 229 -47q6 0 84 3t86 3q45 0 129 24q-131 215 -251 478l-164 376 q-14 41 -37 115q-82 -49 -191 -209q-72 -106 -116 -194q-15 -25 -15 -99zM780 1329l207 -457q147 -307 287 -462q53 29 115.5 187.5t62.5 262.5q0 166 -115 309q-127 160 -311 160h-246z" />
<glyph unicode="r" horiz-adv-x="1146" d="M174 1210q0 199 2 220q10 145 60 145q27 0 43 -39q111 96 288 96q39 0 174 -47q319 -111 320 -481q0 -313 -346 -512q-37 -20 -101 -41q88 -76 271 -213q72 -43 205 -141q8 -6 19 -47t11 -66q0 -43 -14 -84q-18 -51 -53 -51q-25 0 -197 123q-268 193 -463 401 q-12 12 -76 33v-397q0 -18 -16 -58q-20 -45 -45 -45q-27 0 -45 49q-16 37 -16 56v387q0 6 -10.5 356t-10.5 356zM297 782h123h6q52 0 166 33q63 18 106 49l150 113q29 20 57.5 67.5t28.5 69.5q0 96 -156 178q-131 70 -217 70q-141 0 -202.5 -53.5t-61.5 -71.5q-1 -33 -1 -72 q0 -98 7 -237q2 -49 2 -83t-2 -52z" />
<glyph unicode="s" horiz-adv-x="1386" d="M102 481q0 115 76 202t170 87q84 0 84 -135q0 -125 -55 -133q-37 -2 -101 -21q-16 -12 -34 -37q70 -115 301 -211q41 -16 155 -16q109 0 146 12.5t180 98.5q121 72 166 186l24 47q23 41 23 55q0 6 -7 28l-9 28q-14 117 -160 205q-45 27 -158 26q-53 0 -177 -20.5 t-134 -20.5q-152 0 -238 96q-82 90 -82 236q0 193 120 315.5t313 122.5q266 0 266 -209q0 -31 -15 -75q-18 -61 -47 -62q-4 0 -36.5 27.5t-55.5 36.5q-39 12 -110 12q-55 0 -70 -2q-39 -6 -127 -43q-10 -4 -57 -45t-47 -58q0 -20 40 -45q35 -23 54 -24q88 -12 92 -12 t129 21.5t188 21.5q68 0 78 -2q37 -4 98 -33q74 -33 149 -129.5t89 -177.5l29 -97q12 -59 12 -127q0 -78 -31 -159q-12 -35 -68.5 -156t-181.5 -217q-115 -90 -233 -121q-47 -10 -154 -10h-78q-16 2 -114 26q-6 2 -103 56q-135 76 -200 147q-45 47 -74 146q-25 85 -25 159z " />
<glyph unicode="t" horiz-adv-x="1118" d="M33 1425q0 74 37 121q4 6 233 41q240 35 301 35h463q4 0 11 5t16 5q35 0 55 -51q14 -39 14 -84q0 -43 -16 -86q-23 -53 -60 -53h-362q-47 -485 -47 -596v-684q0 -18 -16 -58q-20 -49 -44 -49q-23 0 -43 47q-16 39 -16 56v817q0 2 14 174q16 193 23 287q-86 -2 -289 -29 q-31 -4 -106 -16q-68 -12 -74 -13q-29 0 -45 2q-8 4 -21 15q-28 40 -28 114z" />
<glyph unicode="u" horiz-adv-x="1148" d="M147 1071q0 141 5 418q2 31 18 92q23 90 55 90q16 0 32.5 -28.5t18.5 -43.5q6 -63 7 -65q-2 -20 -8.5 -62t-6.5 -49v-483q0 -145 31 -326q14 -86 23 -112q16 -74 47 -137q27 -53 112 -89q72 -31 129 -30q51 0 152 16q74 12 145 60q14 10 37 55q23 37 47 43v170 q-10 59 -24 176q-10 172 -27 364q-10 109 -10 220q0 276 63 276q25 0 43 -47q14 -37 15 -55v-312q0 -4 8 -75q8 -78 10 -105q4 -82 18 -256q2 -27 15 -102q10 -68 10 -74v-192q0 -4 5 -22.5t7 -31.5q2 -23 2 -98q0 -201 -59 -201q-39 0 -53 88q0 4 -4 13q-43 -78 -144 -119 q-78 -33 -159 -35q-8 0 -49.5 -6t-47.5 -6q-70 0 -161 41q-102 45 -140 110q-23 37 -59 117q-45 143 -62 260q-41 326 -41 553z" />
<glyph unicode="v" horiz-adv-x="1216" d="M106 1499q0 37 15 78q16 53 43 53q23 0 53 -71l76 -232l291 -893q23 -68 61 -139q29 49 55 133l37 127l92 287q57 168 113 305q10 25 39 131q10 39 72 174q74 164 102 164q49 0 55 -131q0 -68 -55 -185q-63 -131 -63 -135q-27 -111 -64 -200q-78 -182 -139 -387 q-92 -295 -103 -326q-49 -141 -106 -215l-20 -35q-9 -16 -31 -16q-37 0 -82 155q-18 41 -45 111l-211 653l-96 281q-89 264 -89 313z" />
<glyph unicode="w" horiz-adv-x="1859" d="M143 1479q0 39 15 82q16 57 45 57q12 0 28.5 -22.5t18.5 -30.5q8 -41 29 -119l204 -522q106 -276 121 -312q84 -197 172 -327q37 106 86 463q6 37 35 133q27 90 27 94q0 8 -54.5 153.5t-87.5 221.5q-18 18 -43 53q-23 49 -22 98q0 35 14 78q18 53 45 53q47 0 98 -110 l52 -129q47 -111 100 -271l80 -245q37 -109 141 -310q86 -168 139 -252q4 16 187 650l82 288q10 33 25.5 95.5t43.5 134.5q47 119 88 119q27 0 43 -54q14 -41 15 -78q0 -27 -19 -67q-29 -66 -36 -94q-104 -313 -312 -1076q0 -2 -8 -71q-2 -29 -31 -101q-35 -92 -67 -92 q-25 0 -41 39l-21 55q-217 367 -336 680q-20 -57 -32 -163q-16 -137 -25 -174q-31 -156 -57 -269l-43 -63q-10 -27 -21.5 -53.5t-42.5 -26.5q-33 0 -80 78l-45 84q-106 193 -217 475q-188 477 -209 522q-84 199 -84 326z" />
<glyph unicode="x" horiz-adv-x="1333" d="M195 1497q0 135 61 135q23 0 33 -16q10 -29 35 -80l148 -265q75 -132 155 -239q4 0 6 4q53 117 147 293q35 66 99 156q106 147 159 147q39 0 58 -59q12 -37 12 -74q0 -20 -11.5 -60t-18.5 -49.5t-43 -28t-165 -230t-129 -252.5q0 -6 56 -86q59 -86 110 -144l86 -90 l142 -186q66 -86 82 -113q25 -47 24 -102q0 -31 -16 -78q-20 -61 -49 -62q-20 0 -39 29l-174 238l-140 153l-174 240q-133 -238 -186 -381q-27 -76 -49 -150l-21 -69l-24 -90q-27 -80 -60 -80q-31 0 -47 53q-14 41 -14 80q0 51 28 145q33 117 111 340q33 80 96 201 q55 104 56 107q0 4 -50 69q-55 76 -75 109q-33 66 -105 196l-78 146q-36 71 -36 143z" />
<glyph unicode="y" horiz-adv-x="1366" d="M137 1499q0 33 15 78q16 55 43 55q16 0 106 -110q109 -135 246 -279l153 -145q106 -100 138 -164q49 70 106 178q29 66 86 182l148 248q8 14 52 52t62 38q29 0 47 -51q16 -43 17 -80q0 -68 -31 -106l-80 -82q-8 -18 -28 -58q-35 -47 -97 -151l-114 -232 q-100 -166 -285 -503q-35 -70 -53 -162l-17 -121q-23 -106 -63 -106q-35 0 -51 63q-10 41 -11 74q0 20 13 86q6 47 20 131q2 16 51 168q12 37 26.5 68.5t61.5 109.5q43 68 43 74q0 4 -198 202q-233 236 -363 404q-43 59 -43 139z" />
<glyph unicode="z" horiz-adv-x="1667" d="M203 117q0 53 55 196q18 23 57 82q31 66 107 191l90 94q10 20 35 59l246 299q6 6 276 308h-242q-6 0 -156.5 -17.5t-158.5 -17.5q-76 0 -76 137q0 37 13.5 79t28 50t59.5 12q70 10 186 17q14 0 61 8t54 8h280q6 0 35 6t43 8q27 2 143 2h45q29 2 43 2q61 0 89 -24 q37 -33 36 -123q0 -92 -57 -135l-172 -119q-59 -47 -156 -115q-51 -35 -114 -106q-219 -242 -441 -522q-10 -20 -38.5 -56.5t-57.5 -66.5q-43 -45 -74 -103q41 4 127 17q80 12 84 12h928q31 0 53 -57q16 -45 17 -82q0 -23 -15 -72q-18 -66 -43 -65h-940q-8 0 -173 -25 t-171 -25h-51q-27 12 -43 66q-12 43 -12 78z" />
<glyph unicode="{" horiz-adv-x="776" d="M197 754q0 106 53 133q33 16 156 16q94 0 118 -18q33 -23 33 -115q0 -33 -12 -74q-16 -59 -43 -59h-193q-6 0 -25.5 -8t-27.5 -8q-59 0 -59 133zM213 68q0 72 27 114l127 152l106 151q70 98 92 99q29 0 45 -52q14 -41 15 -77q0 -61 -23 -109l-65 -88q-53 -78 -168 -225 q-6 -25 -29 -68q-27 -33 -64 -33q-31 0 -49 54q-14 43 -14 82zM274 1503q0 33 11 72q16 63 49 63q16 0 47 -36q98 -127 151 -246q23 -33 60 -94q16 -43 16 -97q0 -25 -12 -67q-14 -53 -31 -60h-35q-39 45 -79 121l-68 125q-31 35 -86 111q-23 36 -23 108z" />
<glyph unicode="|" horiz-adv-x="698" d="M293 1470q0 41 10 84q18 70 55 70q43 0 74 -156q25 -117 25 -163v-664q0 -6 -8.5 -36t-8.5 -36v-471q0 -27 -18 -69q-23 -51 -49 -52q-29 0 -51 60q-16 47 -17 67v508q0 6 8.5 37t8.5 39v610q0 6 -14.5 86t-14.5 86z" />
<glyph unicode="}" horiz-adv-x="827" d="M225 1186q0 66 19.5 100.5t132.5 163.5q25 29 110.5 105.5t98.5 76.5q37 0 53 -65q10 -43 10 -84q0 -49 -18 -97q-25 -59 -72 -75q-25 -10 -115 -103l-67 -84q-68 -82 -86 -82q-31 0 -49 58q-17 45 -17 86zM248 686q0 31 14 79t31 54q61 25 201 25q94 0 124.5 -29 t30.5 -123q0 -39 -10 -78q-16 -63 -53 -63q-6 0 -51.5 6t-53.5 6q-6 0 -80.5 -8t-81.5 -8q-41 0 -59 61q-12 41 -12 78zM264 350q0 41 15 84q18 57 49 58q20 0 53 -46l39 -55q14 -20 49 -61l86 -88q57 -57 66 -95q12 -57 12 -98q0 -45 -12 -86q-16 -57 -48 -57 q-18 0 -137 139t-153 205q-19 32 -19 100z" />
<glyph unicode="~" horiz-adv-x="1079" d="M225 1313q0 102 59.5 169.5t155.5 67.5q12 0 81 -16t126 -16h55q16 8 54 41q31 27 39 26q35 0 55 -57q16 -45 16 -90q0 -145 -149 -207q-4 -2 -64 -2q-74 0 -128 16.5t-83 16.5q-59 0 -84 -29q-6 -6 -22 -55q-10 -29 -39 -29q-43 0 -61 76q-11 45 -11 88z" />
<glyph unicode="&#xa9;" horiz-adv-x="1679" d="M246 918q0 166 84 364q20 45 106 162q16 20 99 74l83 43q74 43 99 53q47 18 108 18q49 0 64 -6q23 -8 53 -12q6 -6 27 -12q45 -4 239 -56q27 -6 111 -49q16 -8 37 -43q25 -43 26 -45q98 -115 152 -338q12 -55 12 -194q0 -188 -53 -345q-4 -29 -20 -83 q-100 -205 -242 -269q-27 -18 -96 -47q-98 -29 -195 -29q-4 0 -45 6.5t-66 8.5q-117 6 -235 88q-133 90 -195 225l-61 133q-92 216 -92 353zM367 924q0 -41 34 -125l41 -101q55 -143 148 -219q147 -121 350 -121q279 0 403 201q14 18 35 51q6 12 15 62q14 35 30 94 q2 12 2 104q0 96 -9 131t-64 154q-12 10 -28.5 36t-49.5 69q-47 29 -107 43q-86 20 -108 28q-98 35 -170 35q-8 0 -31.5 -5t-30.5 -5q-6 0 -21 11t-24 11q-20 0 -131 -61l-91 -48.5t-68 -51.5q-41 -51 -78 -130q-47 -95 -47 -163zM594 823q0 131 31 207q45 109 166 168 q4 2 90 2q84 0 88 -2q125 -53 125 -186q0 -35 -13 -74q-16 -53 -43 -53q-6 0 -44 29.5t-54 35.5h-61h-60q-102 -53 -102 -110q0 -27 21.5 -53.5t47.5 -32.5q4 -2 86 -2q80 0 84 2q16 4 51 31.5t42 27.5q55 0 55 -125v-22q-2 -18 -2 -27q0 -37 -47 -85t-80 -52 q-106 0 -154.5 -2t-34.5 -2q-57 0 -120 88q-55 76 -64 125q-8 38 -8 112z" />
<glyph unicode="&#xad;" d="M281 791q0 27 13 70.5t23 45.5q137 10 254 11q-12 0 113 -9q25 0 66 -12q41 -27 41 -123q0 -125 -68 -125q-6 0 -75.5 7.5t-76.5 7.5q-6 0 -79.5 -5.5t-77.5 -5.5q-78 0 -105.5 31t-27.5 107z" />
<glyph unicode="&#xae;" horiz-adv-x="1482" d="M213 883q0 150 6 184q4 23 49 172q20 66 113.5 156t148.5 98q10 2 33 15.5t29 13.5t20.5 -2t22.5 -2h22q45 59 101 59q68 0 198 -86l74 -88q123 -133 180 -256q6 -12 43 -154q29 -109 29 -178q0 -66 -20.5 -177.5t-40.5 -162.5q-27 -66 -121 -137q-84 -66 -139 -78 q-20 -14 -60 -33q-74 -16 -110 -34q-12 -4 -70 -5q-68 0 -152 15q-16 4 -53 33q-59 43 -61 45q-164 106 -205 303q-12 37 -31 118q-6 44 -6 181zM322 883q0 -123 18 -176q39 -121 76 -154q119 -104 164 -123q39 -16 137 -16q45 0 59 4q82 27 103.5 36t56.5 27 q145 49 201 142q12 20 24 90q12 63 13 98q0 45 -33 143q-4 16 -8 39q-55 121 -218 285l-53 33q-55 39 -82 39h-30q-6 -49 -33 -54q-45 4 -127 -2q-20 -6 -90 -41l-25 -26q-12 -2 -31 -13q-41 -43 -63 -71q-41 -55 -41 -96q-8 -16 -18 -50v-114zM528 889v74q0 121 35 120 q12 0 23 -18q55 41 76 47q6 2 53 2t60 -3t33.5 -30.5t22.5 -44.5q2 -23 3 -45q0 -121 -84 -190q23 -25 71.5 -36t63.5 -28q18 -23 18 -69q0 -76 -37 -76q-8 0 -80 24q-37 14 -172 103q-2 -8 4.5 -26.5t6.5 -24.5q6 -84 -23 -115h-24q-35 59 -35 86v215q0 6 -6 18zM612 877 h41q2 0 82 84h-65q2 0 -58 -41v-43z" />
<glyph unicode="&#x2000;" horiz-adv-x="866" />
<glyph unicode="&#x2001;" horiz-adv-x="1734" />
<glyph unicode="&#x2002;" horiz-adv-x="866" />
<glyph unicode="&#x2003;" horiz-adv-x="1734" />
<glyph unicode="&#x2004;" horiz-adv-x="577" />
<glyph unicode="&#x2005;" horiz-adv-x="432" />
<glyph unicode="&#x2006;" horiz-adv-x="288" />
<glyph unicode="&#x2007;" horiz-adv-x="288" />
<glyph unicode="&#x2008;" horiz-adv-x="215" />
<glyph unicode="&#x2009;" horiz-adv-x="346" />
<glyph unicode="&#x200a;" horiz-adv-x="96" />
<glyph unicode="&#x2010;" d="M281 791q0 27 13 70.5t23 45.5q137 10 254 11q-12 0 113 -9q25 0 66 -12q41 -27 41 -123q0 -125 -68 -125q-6 0 -75.5 7.5t-76.5 7.5q-6 0 -79.5 -5.5t-77.5 -5.5q-78 0 -105.5 31t-27.5 107z" />
<glyph unicode="&#x2011;" d="M281 791q0 27 13 70.5t23 45.5q137 10 254 11q-12 0 113 -9q25 0 66 -12q41 -27 41 -123q0 -125 -68 -125q-6 0 -75.5 7.5t-76.5 7.5q-6 0 -79.5 -5.5t-77.5 -5.5q-78 0 -105.5 31t-27.5 107z" />
<glyph unicode="&#x2012;" d="M281 791q0 27 13 70.5t23 45.5q137 10 254 11q-12 0 113 -9q25 0 66 -12q41 -27 41 -123q0 -125 -68 -125q-6 0 -75.5 7.5t-76.5 7.5q-6 0 -79.5 -5.5t-77.5 -5.5q-78 0 -105.5 31t-27.5 107z" />
<glyph unicode="&#x2013;" horiz-adv-x="1024" d="M205 512v205h614v-205h-614z" />
<glyph unicode="&#x2014;" horiz-adv-x="2048" d="M205 512v205h1638v-205h-1638z" />
<glyph unicode="&#x2018;" horiz-adv-x="722" d="M256 1479q0 37 10 77q18 66 51 66q41 0 115 -125q25 -35 66 -102q18 -39 18 -107q0 -43 -12 -86q-18 -55 -53 -55t-70 59l-41 82q-27 29 -66 86q-18 44 -18 105z" />
<glyph unicode="&#x2019;" horiz-adv-x="835" d="M340 1264q0 68 25 112q27 33 73 99q8 18 27 51l27 51q23 43 45 43q29 0 49 -57q14 -45 14 -84q0 -86 -127 -295l-21 -49q-11 -25 -36 -25q-37 0 -60 61q-16 46 -16 93z" />
<glyph unicode="&#x201c;" horiz-adv-x="1232" d="M258 1208q0 78 27 131l86 115q10 20 32 57l29 62q29 49 53 49q33 0 56 -66q18 -55 18 -98q0 -74 -47 -172q-23 -43 -98 -170l-26 -55q-13 -29 -44 -29q-41 0 -65 70q-21 53 -21 106zM758 1214q0 45 14 111q12 18 29 57q10 35 43 111q10 16 46 53t54 37q35 0 60 -63 q18 -51 18 -97q0 -78 -41 -145q-18 -14 -41 -45l-43 -111q-35 -84 -61 -84q-43 0 -66 86q-12 51 -12 90z" />
<glyph unicode="&#x201d;" horiz-adv-x="1232" d="M258 1208q0 78 27 131l86 115q10 20 32 57l29 62q29 49 53 49q33 0 56 -66q18 -55 18 -98q0 -74 -47 -172q-23 -43 -98 -170l-26 -55q-13 -29 -44 -29q-41 0 -65 70q-21 53 -21 106zM758 1214q0 45 14 111q12 18 29 57q10 35 43 111q10 16 46 53t54 37q35 0 60 -63 q18 -51 18 -97q0 -78 -41 -145q-18 -14 -41 -45l-43 -111q-35 -84 -61 -84q-43 0 -66 86q-12 51 -12 90z" />
<glyph unicode="&#x2026;" horiz-adv-x="2334" d="M1863 102q0 53 15.5 80t60.5 72q53 51 78 51q23 0 39 -41q10 -33 10 -61q0 -57 -23 -88q-6 -8 -47 -39q-18 -12 -47 -49q-20 -29 -37 -29q-25 0 -39 41q-10 30 -10 63zM1085 102q0 53 15.5 80t60.5 72q53 51 78 51q23 0 39 -41q10 -33 10 -61q0 -57 -23 -88 q-6 -8 -47 -39q-18 -12 -47 -49q-20 -29 -37 -29q-25 0 -39 41q-10 30 -10 63zM307 102q0 53 15.5 80t60.5 72q53 51 78 51q23 0 39 -41q10 -33 10 -61q0 -57 -23 -88q-6 -8 -47 -39q-18 -12 -47 -49q-20 -29 -37 -29q-25 0 -39 41q-10 30 -10 63z" />
<glyph unicode="&#x202f;" horiz-adv-x="346" />
<glyph unicode="&#x205f;" horiz-adv-x="432" />
<glyph unicode="&#x2122;" horiz-adv-x="1613" d="M193 1434q0 33 14 73q18 51 47 52q6 0 12 -5.5t15 -5.5q2 0 28.5 17.5t38.5 21.5q162 47 232 47q55 0 55 -114q0 -72 -30 -97.5t-109 -31.5q14 -111 14 -226q0 -203 -53 -202q-23 0 -41 45q-14 37 -15 57v217q0 4 -5 35t-5 45q-2 2 -10 2q-16 0 -47 -21.5t-68 -21.5h-33 q-14 6 -28 51q-12 39 -12 62zM715 1405q0 147 61 170q2 0 16.5 14.5t22.5 14.5q20 0 45 -45q31 -61 39 -70l160 -164q20 84 133 213q27 33 90 92q4 4 39 4q31 0 61 -96q14 -41 33 -121q20 -166 21 -219q0 -37 -13 -82q-14 -59 -43 -59q-41 0 -47 61q-6 90 -30 273l-9 8 q-47 -49 -131 -158q-6 -23 -22 -63q-6 -10 -27 -21q0 -18 -15.5 -47t-35.5 -29l-225 219l-4 -126q-10 -123 -50 -123q-16 0 -34 30q-12 23 -15 37q-20 240 -20 287z" />
<glyph unicode="&#xe000;" horiz-adv-x="1630" d="M0 1630h1630v-1630h-1630v1630z" />
<glyph unicode="&#xfb01;" horiz-adv-x="1835" d="M1378 1470q0 41 10 84q18 70 56 70q43 0 73 -156q25 -117 25 -163v-664q0 -6 -8 -36t-8 -36v-471q0 -27 -19 -69q-23 -51 -49 -52q-29 0 -51 60q-16 47 -17 67v508q0 6 8.5 37t8.5 39v610q0 6 -14.5 86t-14.5 86zM229 356q-5 286 -5 522t5 422q2 27 9 80q18 201 73 201 q4 0 19.5 -15.5t21.5 -15.5q4 0 121 25q125 27 150 31q78 10 145 12h96q10 2 41 11t37 9q66 0 66 -135q0 -59 0 -51q-2 -27 -29 -63q-20 -27 -115 -37q-19 1 -44 0q-51 0 -128 -2l-293 -54q-27 -4 -43 -16q-6 -68 -6 -209l2 -2q143 41 223 49q332 39 443 39q31 0 45 -6 q43 -23 43 -127q0 -35 -12 -76q-18 -51 -47 -55l-62 -4q-43 -8 -127 -17q-158 -6 -240 -14q-145 -16 -268 -59v-371q0 -4 10.5 -147.5t10.5 -149.5q0 -33 -17 -84q-20 -70 -55 -70q-25 0 -45 50q-14 37 -14 53v207q0 6 -5.5 31.5t-5.5 37.5z" />
<glyph unicode="&#xfb02;" horiz-adv-x="2172" d="M1274 1411q0 221 63 221q25 0 44.5 -41t21.5 -104v-96q20 -303 69 -914q4 -51 23 -119q6 -27 10 -53q8 -35 23 -49q14 0 20 2l221 113q127 61 244 106q100 37 90 37q31 0 51 -55q14 -45 15 -84q0 -72 -29 -117q-12 -18 -30.5 -24.5l-34.5 -12.5q-102 -39 -224 -92 l-155 -86q-119 -66 -160 -66q-96 0 -143 205l-25 92q-16 78 -23 164l-8 150q-12 139 -33 413q-6 94 -20 226q-10 92 -10 184zM229 356q-5 286 -5 522t5 422q2 27 9 80q18 201 73 201q4 0 19.5 -15.5t21.5 -15.5q4 0 121 25q125 27 150 31q78 10 145 12h96q10 2 41 11t37 9 q66 0 66 -135q0 -59 0 -51q-2 -27 -29 -63q-20 -27 -115 -37q-19 1 -44 0q-51 0 -128 -2l-293 -54q-27 -4 -43 -16q-6 -68 -6 -209l2 -2q143 41 223 49q332 39 443 39q31 0 45 -6q43 -23 43 -127q0 -35 -12 -76q-18 -51 -47 -55l-62 -4q-43 -8 -127 -17q-158 -6 -240 -14 q-145 -16 -268 -59v-371q0 -4 10.5 -147.5t10.5 -149.5q0 -33 -17 -84q-20 -70 -55 -70q-25 0 -45 50q-14 37 -14 53v207q0 6 -5.5 31.5t-5.5 37.5z" />
<glyph unicode="&#xfb03;" horiz-adv-x="2906" d="M2449 1470q0 41 10 84q18 70 56 70q43 0 73 -156q25 -117 25 -163v-664q0 -6 -8 -36t-8 -36v-471q0 -27 -19 -69q-23 -51 -49 -52q-29 0 -51 60q-16 47 -17 67v508q0 6 8.5 37t8.5 39v610q0 6 -14.5 86t-14.5 86zM1300 356q-5 286 -5 522t5 422q2 27 9 80q18 201 73 201 q4 0 19.5 -15.5t21.5 -15.5q4 0 121 25q125 27 150 31q78 10 145 12h96q10 2 41 11t37 9q66 0 66 -135q0 -59 0 -51q-2 -27 -29 -63q-20 -27 -115 -37q-19 1 -44 0q-51 0 -128 -2l-293 -54q-27 -4 -43 -16q-6 -68 -6 -209l2 -2q143 41 223 49q332 39 443 39q31 0 45 -6 q43 -23 43 -127q0 -35 -12 -76q-18 -51 -47 -55l-62 -4q-43 -8 -127 -17q-158 -6 -240 -14q-145 -16 -268 -59v-371q0 -4 10.5 -147.5t10.5 -149.5q0 -33 -17 -84q-20 -70 -55 -70q-25 0 -45 50q-14 37 -14 53v207q0 6 -5.5 31.5t-5.5 37.5zM229 356q-5 286 -5 522t5 422 q2 27 9 80q18 201 73 201q4 0 19.5 -15.5t21.5 -15.5q4 0 121 25q125 27 150 31q78 10 145 12h96q10 2 41 11t37 9q66 0 66 -135q0 -59 0 -51q-2 -27 -29 -63q-20 -27 -115 -37q-19 1 -44 0q-51 0 -128 -2l-293 -54q-27 -4 -43 -16q-6 -68 -6 -209l2 -2q143 41 223 49 q332 39 443 39q31 0 45 -6q43 -23 43 -127q0 -35 -12 -76q-18 -51 -47 -55l-62 -4q-43 -8 -127 -17q-158 -6 -240 -14q-145 -16 -268 -59v-371q0 -4 10.5 -147.5t10.5 -149.5q0 -33 -17 -84q-20 -70 -55 -70q-25 0 -45 50q-14 37 -14 53v207q0 6 -5.5 31.5t-5.5 37.5z" />
<glyph unicode="&#xfb04;" horiz-adv-x="3244" d="M2345 1411q0 221 63 221q25 0 44.5 -41t21.5 -104v-96q20 -303 69 -914q4 -51 23 -119q6 -27 10 -53q8 -35 23 -49q14 0 20 2l221 113q127 61 244 106q100 37 90 37q31 0 51 -55q14 -45 15 -84q0 -72 -29 -117q-12 -18 -30.5 -24.5l-34.5 -12.5q-102 -39 -224 -92 l-155 -86q-119 -66 -160 -66q-96 0 -143 205l-25 92q-16 78 -23 164l-8 150q-12 139 -33 413q-6 94 -20 226q-10 92 -10 184zM1300 356q-5 286 -5 522t5 422q2 27 9 80q18 201 73 201q4 0 19.5 -15.5t21.5 -15.5q4 0 121 25q125 27 150 31q78 10 145 12h96q10 2 41 11t37 9 q66 0 66 -135q0 -59 0 -51q-2 -27 -29 -63q-20 -27 -115 -37q-19 1 -44 0q-51 0 -128 -2l-293 -54q-27 -4 -43 -16q-6 -68 -6 -209l2 -2q143 41 223 49q332 39 443 39q31 0 45 -6q43 -23 43 -127q0 -35 -12 -76q-18 -51 -47 -55l-62 -4q-43 -8 -127 -17q-158 -6 -240 -14 q-145 -16 -268 -59v-371q0 -4 10.5 -147.5t10.5 -149.5q0 -33 -17 -84q-20 -70 -55 -70q-25 0 -45 50q-14 37 -14 53v207q0 6 -5.5 31.5t-5.5 37.5zM229 356q-5 286 -5 522t5 422q2 27 9 80q18 201 73 201q4 0 19.5 -15.5t21.5 -15.5q4 0 121 25q125 27 150 31q78 10 145 12 h96q10 2 41 11t37 9q66 0 66 -135q0 -59 0 -51q-2 -27 -29 -63q-20 -27 -115 -37q-19 1 -44 0q-51 0 -128 -2l-293 -54q-27 -4 -43 -16q-6 -68 -6 -209l2 -2q143 41 223 49q332 39 443 39q31 0 45 -6q43 -23 43 -127q0 -35 -12 -76q-18 -51 -47 -55l-62 -4q-43 -8 -127 -17 q-158 -6 -240 -14q-145 -16 -268 -59v-371q0 -4 10.5 -147.5t10.5 -149.5q0 -33 -17 -84q-20 -70 -55 -70q-25 0 -45 50q-14 37 -14 53v207q0 6 -5.5 31.5t-5.5 37.5z" />
</font>
</defs>
</svg>
